<svg preserveAspectRatio="none" overflow="visible" style="display: block;" width="72" height="72" viewBox="0 0 72 72" fill="none" xmlns="http://www.w3.org/2000/svg">
<g id="&#230;&#156;&#157;&#229;&#164;&#149;&#228;&#189;&#147;&#233;&#135;&#141; App icon" clip-path="url(#clip0_0_41)">
<path id="Vector" d="M72 0H0V72H72V0Z" fill="#5F7D6F"/>
<g id="Group">
<path id="Vector_2" d="M15.75 31.5C18.2353 31.5 20.25 29.4853 20.25 27C20.25 24.5147 18.2353 22.5 15.75 22.5C13.2647 22.5 11.25 24.5147 11.25 27C11.25 29.4853 13.2647 31.5 15.75 31.5Z" fill="white"/>
<path id="Vector_3" d="M56.25 25.3125C58.7353 25.3125 60.75 23.2978 60.75 20.8125C60.75 18.3272 58.7353 16.3125 56.25 16.3125C53.7647 16.3125 51.75 18.3272 51.75 20.8125C51.75 23.2978 53.7647 25.3125 56.25 25.3125Z" fill="white"/>
<path id="Vector_4" d="M15.75 27C22.5 27 23.0625 43.875 31.5 43.875C39.9375 43.875 39.9375 24.1875 48.375 24.1875C51.75 24.1875 54 21.9375 56.25 20.8125" stroke="white" stroke-width="4.5" stroke-linecap="round" stroke-linejoin="round"/>
<path id="Vector_5" d="M20.8125 54.5625H51.1875" stroke="white" stroke-width="4.5" stroke-linecap="round"/>
</g>
</g>
<defs>
<clipPath id="clip0_0_41">
<rect width="72" height="72" fill="white"/>
</clipPath>
</defs>
</svg>
