<svg preserveAspectRatio="none" overflow="visible" style="display: block;" width="15.7761" height="15.7761" viewBox="0 0 15.7761 15.7761" fill="none" xmlns="http://www.w3.org/2000/svg">
<g id="edit" clip-path="url(#clip0_0_31)">
<path id="Vector" d="M7.88786 1.97192H3.28651C2.93783 1.97192 2.60344 2.11043 2.35689 2.35698C2.11034 2.60353 1.97183 2.93792 1.97183 3.28659V12.4893C1.97183 12.838 2.11034 13.1724 2.35689 13.4189C2.60344 13.6655 2.93783 13.804 3.28651 13.804H12.4892C12.8379 13.804 13.1723 13.6655 13.4188 13.4189C13.6654 13.1724 13.8039 12.838 13.8039 12.4893V7.88795M12.0784 1.72557C12.34 1.46406 12.6946 1.31715 13.0645 1.31715C13.4343 1.31715 13.789 1.46406 14.0505 1.72557C14.312 1.98707 14.4589 2.34175 14.4589 2.71157C14.4589 3.0814 14.312 3.43607 14.0505 3.69758L8.12588 9.62281C7.9698 9.77876 7.77697 9.89292 7.56517 9.95477L5.67664 10.5069C5.62008 10.5234 5.56012 10.5244 5.50305 10.5098C5.44597 10.4952 5.39388 10.4655 5.35221 10.4238C5.31055 10.3821 5.28086 10.3301 5.26623 10.273C5.25161 10.2159 5.2526 10.1559 5.2691 10.0994L5.82126 8.21085C5.88339 7.99922 5.99778 7.80663 6.15387 7.6508L12.0784 1.72557Z" stroke="#ABA7A0" stroke-width="1.57761" stroke-linecap="round"/>
</g>
<defs>
<clipPath id="clip0_0_31">
<rect width="15.7761" height="15.7761" fill="white"/>
</clipPath>
</defs>
</svg>
